<svg xmlns="http://www.w3.org/2000/svg" viewBox="0 0 64 64"><defs><clipPath id="cp"><circle cx="32" cy="32" r="30"></circle></clipPath></defs>
<circle cx="32" cy="32" r="30.5" fill="#E0E1DD" stroke="#001B3D" stroke-width="2.5"></circle>
<g clip-path="url(#cp)">
<path d="M12 66c0-14 8.5-20.5 20-20.5S52 52 52 66z" fill="#CFE0D8" stroke="#001B3D" stroke-width="2"></path>
<path d="M26 45.5l6 5.5 6-5.5" fill="#F4F1EC" stroke="#001B3D" stroke-width="1.6" stroke-linejoin="round"></path>

<circle cx="32" cy="28" r="12.5" fill="#F2CFA5" stroke="#001B3D" stroke-width="2"></circle>
<path d="M20 27c0-9 5.5-13.5 12-13.5S44 18 44 27c-2.5-5.5-5.5-7-12-7s-9.5 1.5-12 7z" fill="#001B3D" stroke="#001B3D" stroke-width="1.8" stroke-linejoin="round"></path><circle cx="27.5" cy="27.5" r="1.4" fill="#001B3D"></circle><circle cx="36.5" cy="27.5" r="1.4" fill="#001B3D"></circle><path d="M29.5 33.5q2.5 2 5 0" fill="none" stroke="#001B3D" stroke-width="1.6" stroke-linecap="round"></path>
</g></svg>