<svg xmlns="http://www.w3.org/2000/svg" viewBox="0 0 240 240"><rect width="240" height="240" fill="#001B3D"></rect><path d="M0 0V240M0 0H240M24 0V240M0 24H240M48 0V240M0 48H240M72 0V240M0 72H240M96 0V240M0 96H240M120 0V240M0 120H240M144 0V240M0 144H240M168 0V240M0 168H240M192 0V240M0 192H240M216 0V240M0 216H240M240 0V240M0 240H240" stroke="#FFFFFF" stroke-opacity="0.035" stroke-width="1"></path><path d="M0 0H240M0 4H240M0 8H240M0 12H240M0 16H240M0 20H240M0 24H240M0 28H240M0 32H240M0 36H240M0 40H240M0 44H240M0 48H240M0 52H240M0 56H240M0 60H240M0 64H240M0 68H240M0 72H240M0 76H240M0 80H240M0 84H240M0 88H240M0 92H240M0 96H240M0 100H240M0 104H240M0 108H240M0 112H240M0 116H240M0 120H240M0 124H240M0 128H240M0 132H240M0 136H240M0 140H240M0 144H240M0 148H240M0 152H240M0 156H240M0 160H240M0 164H240M0 168H240M0 172H240M0 176H240M0 180H240M0 184H240M0 188H240M0 192H240M0 196H240M0 200H240M0 204H240M0 208H240M0 212H240M0 216H240M0 220H240M0 224H240M0 228H240M0 232H240M0 236H240" stroke="#000000" stroke-opacity="0.06" stroke-width="1"></path></svg>