<svg xmlns="http://www.w3.org/2000/svg" viewBox="0 0 240 240">
<g>
<path d="M40 240c0-38 22-56 80-56s80 18 80 56z" fill="#001B3D" stroke="#001B3D" stroke-width="4"></path>
<path d="M104 186l16 14 16-14" fill="#F4F1EC" stroke="#001B3D" stroke-width="3" stroke-linejoin="round"></path>
<path d="M120 200l8 11-8 27-8-27z" fill="#FFD166" stroke="#001B3D" stroke-width="3" stroke-linejoin="round"></path>
<circle cx="120" cy="116" r="52" fill="#F2CFA5" stroke="#001B3D" stroke-width="4"></circle>
<path d="M70 104c-2-32 20-48 50-48s52 16 50 48c-6-18-14-24-22-26-10 6-46 6-56 0-8 4-16 10-22 26z" fill="#AAB2C5" stroke="#001B3D" stroke-width="3.5" stroke-linejoin="round"></path>
<path d="M64 122q-8-2-8-12t10-8M176 122q8-2 8-12t-10-8" fill="#F2CFA5" stroke="#001B3D" stroke-width="3.5"></path>
<path d="M92 100l22-6M148 100l-22-6" stroke="#001B3D" stroke-width="5" stroke-linecap="round"></path><path d="M98 112q5 4 10 0M132 112q5 4 10 0" fill="none" stroke="#001B3D" stroke-width="4" stroke-linecap="round"></path><path d="M110 142q10-7 20 0" fill="none" stroke="#001B3D" stroke-width="4.5" stroke-linecap="round"></path><path d="M97 122q-3 8 0 14M143 122q3 8 0 14" stroke="#7FB8E8" stroke-width="5" fill="none" stroke-linecap="round"></path>
</g></svg>