<svg xmlns="http://www.w3.org/2000/svg" viewBox="0 0 320 220">
<g fill="#FFD166"><rect x="20" y="18" width="10" height="14" rx="1" transform="rotate(20 25 25)"></rect><rect x="270" y="10" width="10" height="14" rx="1" transform="rotate(-15 275 17)"></rect></g>
<g fill="#06D6A0"><circle cx="160" cy="14" r="5"></circle><rect x="60" y="4" width="9" height="12" rx="1" transform="rotate(-30 64 10)"></rect></g>
<g fill="#EF476F"><path d="M226 26l5-13 5 13z"></path><circle cx="105" cy="24" r="4"></circle></g>
<g transform="translate(30 0) ">
<path d="M28 96 L14 62" stroke="#F2CFA5" stroke-width="12" stroke-linecap="round"></path>
<path d="M92 96 L106 62" stroke="#F2CFA5" stroke-width="12" stroke-linecap="round"></path>
<rect x="0" y="40" width="28" height="20" rx="3" fill="#F4F1EC" stroke="#001B3D" stroke-width="2.5" transform="rotate(-15 14 50)"></rect>
<path d="M24 220c0-24 8-36 36-36s36 12 36 36z" fill="#415A77" stroke="#001B3D" stroke-width="3.5"></path>
<path d="M48 186l12 10 12-10" fill="#F4F1EC" stroke="#001B3D" stroke-width="2.5" stroke-linejoin="round"></path>
<path d="M60 196l6 8-6 18-6-18z" fill="#06D6A0" stroke="#001B3D" stroke-width="2.5"></path>
<circle cx="60" cy="146" r="34" fill="#F2CFA5" stroke="#001B3D" stroke-width="3.5"></circle>
<path d="M28 140c-2-22 12-32 32-32s34 10 32 32c-4-12-9-16-15-18-6 4-28 4-34 0-6 3-11 8-15 18z" fill="#001B3D" stroke="#001B3D" stroke-width="3"></path>
<path d="M46 144q3-4 8 0M66 144q3-4 8 0" fill="none" stroke="#001B3D" stroke-width="3.5" stroke-linecap="round"></path>
<path d="M50 158q10 8 20 0v3q-10 7-20 0z" fill="#7A3B4E" stroke="#001B3D" stroke-width="2.5"></path>
</g>
<g transform="translate(170 0) scale(-1 1) translate(-120 0)">
<path d="M28 96 L14 62" stroke="#F2CFA5" stroke-width="12" stroke-linecap="round"></path>
<path d="M92 96 L106 62" stroke="#F2CFA5" stroke-width="12" stroke-linecap="round"></path>
<rect x="0" y="40" width="28" height="20" rx="3" fill="#F4F1EC" stroke="#001B3D" stroke-width="2.5" transform="rotate(-15 14 50)"></rect>
<path d="M24 220c0-24 8-36 36-36s36 12 36 36z" fill="#CFE0D8" stroke="#001B3D" stroke-width="3.5"></path>
<path d="M48 186l12 10 12-10" fill="#F4F1EC" stroke="#001B3D" stroke-width="2.5" stroke-linejoin="round"></path>

<circle cx="60" cy="146" r="34" fill="#F2CFA5" stroke="#001B3D" stroke-width="3.5"></circle>
<path d="M28 140c-2-22 12-32 32-32s34 10 32 32c-4-12-9-16-15-18-6 4-28 4-34 0-6 3-11 8-15 18z" fill="#5A4632" stroke="#001B3D" stroke-width="3"></path>
<path d="M46 144q3-4 8 0M66 144q3-4 8 0" fill="none" stroke="#001B3D" stroke-width="3.5" stroke-linecap="round"></path>
<path d="M50 158q10 8 20 0v3q-10 7-20 0z" fill="#7A3B4E" stroke="#001B3D" stroke-width="2.5"></path>
</g>
</svg>