<svg xmlns="http://www.w3.org/2000/svg" viewBox="0 0 64 240"><rect x="4" y="4" width="56" height="232" rx="3" fill="#415A77" stroke="#001B3D" stroke-width="3"></rect>
<rect x="10" y="12" width="44" height="49" rx="2" fill="#5F7996" stroke="#001B3D" stroke-width="2"></rect><rect x="24" y="32" width="16" height="5" rx="2.5" fill="#E0E1DD" stroke="#001B3D" stroke-width="1.5"></rect><rect x="16" y="18" width="32" height="7" rx="1.5" fill="#F4F1EC" stroke="#001B3D" stroke-width="1.5"></rect><rect x="10" y="69" width="44" height="49" rx="2" fill="#5F7996" stroke="#001B3D" stroke-width="2"></rect><rect x="24" y="89" width="16" height="5" rx="2.5" fill="#E0E1DD" stroke="#001B3D" stroke-width="1.5"></rect><rect x="16" y="75" width="32" height="7" rx="1.5" fill="#F4F1EC" stroke="#001B3D" stroke-width="1.5"></rect><rect x="10" y="126" width="44" height="49" rx="2" fill="#5F7996" stroke="#001B3D" stroke-width="2"></rect><rect x="24" y="146" width="16" height="5" rx="2.5" fill="#E0E1DD" stroke="#001B3D" stroke-width="1.5"></rect><rect x="16" y="132" width="32" height="7" rx="1.5" fill="#F4F1EC" stroke="#001B3D" stroke-width="1.5"></rect><rect x="10" y="183" width="44" height="49" rx="2" fill="#5F7996" stroke="#001B3D" stroke-width="2"></rect><rect x="24" y="203" width="16" height="5" rx="2.5" fill="#E0E1DD" stroke="#001B3D" stroke-width="1.5"></rect><rect x="16" y="189" width="32" height="7" rx="1.5" fill="#F4F1EC" stroke="#001B3D" stroke-width="1.5"></rect></svg>