<svg xmlns="http://www.w3.org/2000/svg" viewBox="0 0 48 96">
<rect x="4" y="4" width="40" height="88" rx="12" fill="#7780A9" stroke="#001B3D" stroke-width="3"></rect>
<rect x="0.5" y="16" width="6" height="14" rx="2.5" fill="#001B3D"></rect><rect x="41.5" y="16" width="6" height="14" rx="2.5" fill="#001B3D"></rect>
<rect x="0.5" y="64" width="6" height="14" rx="2.5" fill="#001B3D"></rect><rect x="41.5" y="64" width="6" height="14" rx="2.5" fill="#001B3D"></rect>
<path d="M10 26 q14 -6 28 0 l-3 10 q-11 -4 -22 0 z" fill="#0A2A52" opacity="0.85"></path>
<rect x="10" y="38" width="28" height="30" rx="5" fill="#9AA2C2" stroke="#001B3D" stroke-width="2.5"></rect>
<path d="M10 74 q14 6 28 0 l-3 -8 q-11 4 -22 0 z" fill="#0A2A52" opacity="0.85"></path>
<rect x="12" y="8" width="10" height="4" rx="2" fill="#FFF7D6"></rect><rect x="26" y="8" width="10" height="4" rx="2" fill="#FFF7D6"></rect>
<rect x="12" y="85" width="10" height="4" rx="2" fill="#E86A6A"></rect><rect x="26" y="85" width="10" height="4" rx="2" fill="#E86A6A"></rect></svg>