<svg xmlns="http://www.w3.org/2000/svg" viewBox="0 0 96 84">
<g stroke="#7780A9" stroke-width="3" stroke-linecap="round"><path d="M2 22h12M0 34h10M4 46h12"></path></g>
<rect x="18" y="8" width="74" height="46" rx="10" fill="#06D6A0" stroke="#001B3D" stroke-width="3"></rect>
<rect x="23" y="12" width="64" height="14" rx="7" fill="#FFFFFF" opacity="0.25"></rect>
<circle cx="44" cy="28" r="3.5" fill="#001B3D"></circle><circle cx="66" cy="28" r="3.5" fill="#001B3D"></circle>
<path d="M40 24l8 3M70 24l-8 3" stroke="#001B3D" stroke-width="2.5" stroke-linecap="round"></path>
<ellipse cx="55" cy="40" rx="5" ry="6" fill="#001B3D"></ellipse>
<path d="M86 6 q6 6 2 12" fill="none" stroke="#7FB8E8" stroke-width="4" stroke-linecap="round"></path>
<path d="M40 54 l-6 14 M44 54 l2 16 M66 54 l6 14 M62 54 l-2 16" stroke="#001B3D" stroke-width="5" stroke-linecap="round"></path>
<path d="M28 72 h12 M60 74 h12" stroke="#001B3D" stroke-width="5" stroke-linecap="round"></path></svg>